<svg width="25" height="18" viewBox="0 0 25 18" fill="none" xmlns="http://www.w3.org/2000/svg">
<path fill-rule="evenodd" clip-rule="evenodd" d="M12.7551 5.74918C10.2621 5.74918 8.2403 7.27684 8.2403 9.16056C8.2403 11.0435 10.2623 12.5711 12.7551 12.5711C15.2469 12.5711 17.2686 11.0434 17.2686 9.16056C17.2686 7.27699 15.2471 5.74918 12.7551 5.74918ZM10.0099 9.16056C10.0099 8.01531 11.2394 7.08628 12.7551 7.08628C14.2694 7.08628 15.4991 8.01517 15.4991 9.16056C15.4991 10.3049 14.2696 11.234 12.7551 11.234C11.2392 11.234 10.0099 10.3048 10.0099 9.16056Z" fill="#BDBDBD"/>
<path fill-rule="evenodd" clip-rule="evenodd" d="M21.9434 5.96978C21.9654 5.98771 21.9864 6.00673 22.0061 6.02683C22.8779 6.91398 23.6082 7.87526 24.1809 8.89201C24.2281 8.97583 24.2516 9.06508 24.2515 9.15429C24.2516 9.24351 24.2282 9.33276 24.1809 9.41657C23.6082 10.4333 22.8779 11.3946 22.0061 12.2818C21.9864 12.3019 21.9654 12.3209 21.9434 12.3388C20.3432 13.9296 18.3688 15.0927 16.1746 15.693C16.1143 15.7219 16.0483 15.7458 15.9773 15.7636C14.9489 16.0213 13.8715 16.1543 12.7853 16.1543L12.7501 16.1543L12.7176 16.1543C11.6315 16.1543 10.5541 16.0213 9.52559 15.7636C9.45466 15.7458 9.38869 15.7219 9.32838 15.693C7.13413 15.0927 5.15975 13.9296 3.55954 12.3388C3.5375 12.3209 3.51655 12.3019 3.4968 12.2818C2.62508 11.3946 1.89471 10.4333 1.32199 9.41658C1.27478 9.33277 1.25128 9.24352 1.25147 9.1543C1.25128 9.06508 1.27478 8.97583 1.32199 8.89202C1.89471 7.87527 2.62508 6.91398 3.4968 6.02683C3.51655 6.00674 3.53751 5.98771 3.55955 5.96978C5.15974 4.37902 7.13409 3.21588 9.32831 2.61563C9.38864 2.58667 9.45464 2.56279 9.5256 2.545C10.5541 2.2873 11.6315 2.1543 12.7176 2.1543L12.753 2.15434L12.7853 2.1543C13.8715 2.1543 14.9489 2.28731 15.9773 2.54501C16.0483 2.56279 16.1142 2.58666 16.1745 2.6156C18.3688 3.21585 20.3432 4.379 21.9434 5.96978ZM20.8852 11.1654C18.7127 13.5185 15.7842 14.8079 12.7504 14.8171C9.7176 14.8073 6.79018 13.5182 4.61817 11.1659C4.5195 11.0587 4.42305 10.9504 4.32885 10.8411C3.88553 10.325 3.47709 9.76204 3.10964 9.1543C3.47724 8.54632 3.88586 7.98318 4.32939 7.4669C4.42326 7.35792 4.51937 7.25 4.6177 7.14318C6.79031 4.79004 9.71886 3.50063 12.7527 3.49145C15.7854 3.50131 18.7128 4.79047 20.8848 7.14266C20.9834 7.24986 21.0799 7.35815 21.1741 7.46751C21.6174 7.98362 22.0258 8.54656 22.3933 9.15429C22.0257 9.76228 21.6171 10.3254 21.1735 10.8417C21.0797 10.9507 20.9836 11.0586 20.8852 11.1654Z" fill="#BDBDBD"/>
</svg>
