<svg width="25" height="18" viewBox="0 0 25 18" fill="none" xmlns="http://www.w3.org/2000/svg">
<g clip-path="url(#clip0_408_8126)">
<path d="M5.81259 14C3.68591 12.6456 2.031 10.9039 1 8.93184C2.04622 6.95106 3.7138 5.20248 5.85443 3.84031C7.70592 2.67036 10.0203 2.02244 12.4145 2C14.8215 2.02439 17.1434 2.68011 19 3.85885" stroke="#BDBDBD" stroke-width="1.5" stroke-linecap="round" stroke-linejoin="round"/>
<path d="M22 1L3 17" stroke="#BDBDBD" stroke-width="1.5" stroke-linecap="round" stroke-linejoin="round"/>
<path d="M10.0288 11C9.36694 10.4542 8.99659 9.71023 9.00002 8.9339C8.99659 7.31645 10.5672 6.00287 12.5081 6.00001C13.4431 5.9981 14.3393 6.30672 15 6.8573" stroke="#BDBDBD" stroke-width="1.5" stroke-linecap="round" stroke-linejoin="round"/>
<path d="M21.7087 6C22.6273 6.93261 23.3968 7.94293 24 9.01131C21.4954 13.3733 17.0699 16 12.2217 16C11.1264 16 10.039 15.8662 9 15.6065" stroke="#BDBDBD" stroke-width="1.5" stroke-linecap="round" stroke-linejoin="round"/>
<path d="M16 10C15.7217 11.0162 14.5273 11.8133 13 12" stroke="#BDBDBD" stroke-width="1.5" stroke-linecap="round" stroke-linejoin="round"/>
</g>
<defs>
<clipPath id="clip0_408_8126">
<rect width="25" height="18" fill="white"/>
</clipPath>
</defs>
</svg>
